<?xml version="1.0" encoding="UTF-8" standalone="no"?><!DOCTYPE svg PUBLIC "-//W3C//DTD SVG 1.1//EN" "http://www.w3.org/Graphics/SVG/1.1/DTD/svg11.dtd"><svg width="100%" height="100%" viewBox="0 0 184 84" version="1.1" xmlns="http://www.w3.org/2000/svg" xmlns:xlink="http://www.w3.org/1999/xlink" xml:space="preserve" xmlns:serif="http://www.serif.com/" style="fill-rule:evenodd;clip-rule:evenodd;stroke-linecap:round;stroke-linejoin:round;stroke-miterlimit:1.5;"><rect id="tide_high" x="0" y="0" width="183.333" height="83.333" style="fill:none;"/><g id="Layer1"><path d="M18.546,46.272c0,0 4.094,10.232 11.664,10.232c7.571,0 8.891,-10.232 14.217,-10.232c5.326,0 7.921,10.232 15.427,10.232c7.505,0 7.262,-10.232 14.018,-10.232c6.756,0 7.792,10.232 15.186,10.232c7.394,0 6.052,-10.232 14.173,-10.232c8.12,0 7.326,10.232 14.963,10.232c7.638,0 6.581,-10.232 14.416,-10.232c7.834,0 7.57,10.232 15.052,10.232c7.483,0 8.23,-10.232 14.062,-10.232c2.994,0 3.063,1.739 3.063,1.739" style="fill:none;stroke:#fff;stroke-width:8.33px;"/></g><g id="Layer11" serif:id="Layer1"><path d="M18.546,66.186c0,-0 4.094,10.232 11.664,10.232c7.571,-0 8.891,-10.232 14.217,-10.232c5.326,-0 7.921,10.232 15.427,10.232c7.505,-0 7.262,-10.232 14.018,-10.232c6.756,-0 7.792,10.232 15.186,10.232c7.394,-0 6.052,-10.232 14.173,-10.232c8.12,-0 7.326,10.232 14.963,10.232c7.638,-0 6.581,-10.232 14.416,-10.232c7.834,-0 7.57,10.232 15.052,10.232c7.483,-0 8.23,-10.232 14.062,-10.232c2.994,-0 3.063,1.738 3.063,1.738" style="fill:none;stroke:#fff;stroke-width:8.33px;"/></g><g id="Layer12" serif:id="Layer1"><path d="M18.546,24.441c0,0 4.094,10.233 11.664,10.233c7.571,-0 8.891,-10.233 14.217,-10.233c5.326,0 7.921,10.233 15.427,10.233c7.505,-0 7.262,-10.233 14.018,-10.233c6.756,0 7.792,10.233 15.186,10.233c7.394,-0 6.052,-10.233 14.173,-10.233c8.12,0 7.326,10.233 14.963,10.233c7.638,-0 6.581,-10.233 14.416,-10.233c7.834,0 7.57,10.233 15.052,10.233c7.483,-0 8.23,-10.233 14.062,-10.233c2.994,0 3.063,1.739 3.063,1.739" style="fill:none;stroke:#fff;stroke-width:8.33px;"/></g><g id="Layer13" serif:id="Layer1"><path d="M18.546,4.5c0,0 4.094,10.233 11.664,10.233c7.571,-0 8.891,-10.233 14.217,-10.233c5.326,0 7.921,10.233 15.427,10.233c7.505,-0 7.262,-10.233 14.018,-10.233c6.756,0 7.792,10.233 15.186,10.233c7.394,-0 6.052,-10.233 14.173,-10.233c8.12,0 7.326,10.233 14.963,10.233c7.638,-0 6.581,-10.233 14.416,-10.233c7.834,0 7.57,10.233 15.052,10.233c7.483,-0 8.23,-10.233 14.062,-10.233c2.994,0 3.063,1.739 3.063,1.739" style="fill:none;stroke:#fff;stroke-width:8.33px;"/></g></svg>