<?xml version="1.0" encoding="UTF-8" standalone="no"?><!DOCTYPE svg PUBLIC "-//W3C//DTD SVG 1.1//EN" "http://www.w3.org/Graphics/SVG/1.1/DTD/svg11.dtd"><svg width="100%" height="100%" viewBox="0 0 184 84" version="1.1" xmlns="http://www.w3.org/2000/svg" xmlns:xlink="http://www.w3.org/1999/xlink" xml:space="preserve" xmlns:serif="http://www.serif.com/" style="fill-rule:evenodd;clip-rule:evenodd;stroke-linecap:round;stroke-linejoin:round;stroke-miterlimit:1.5;"><rect id="tide_low" x="0" y="0" width="183.333" height="83.333" style="fill:none;"/><g id="Layer1"><path d="M20.426,61.556c0,-0 4.094,10.232 11.664,10.232c7.571,-0 8.891,-10.232 14.217,-10.232c5.326,-0 7.921,10.232 15.427,10.232c7.505,-0 7.262,-10.232 14.018,-10.232c6.756,-0 7.792,10.232 15.186,10.232c7.394,-0 6.052,-10.232 14.172,-10.232c8.121,-0 7.327,10.232 14.964,10.232c7.637,-0 6.581,-10.232 14.415,-10.232c7.835,-0 7.571,10.232 15.053,10.232c7.483,-0 8.23,-10.232 14.062,-10.232c2.994,-0 3.063,1.738 3.063,1.738" style="fill:none;stroke:#fff;stroke-width:8.33px;"/></g></svg>