<?xml version="1.0" encoding="UTF-8" standalone="no"?><!DOCTYPE svg PUBLIC "-//W3C//DTD SVG 1.1//EN" "http://www.w3.org/Graphics/SVG/1.1/DTD/svg11.dtd"><svg width="100%" height="100%" viewBox="0 0 184 84" version="1.1" xmlns="http://www.w3.org/2000/svg" xmlns:xlink="http://www.w3.org/1999/xlink" xml:space="preserve" xmlns:serif="http://www.serif.com/" style="fill-rule:evenodd;clip-rule:evenodd;stroke-linecap:round;stroke-linejoin:round;stroke-miterlimit:1.5;"><g id="Layer1"><path d="M16.667,50c21.075,4.167 25.578,-25.536 50,-16.667" style="fill:none;stroke:#fff;stroke-width:8.33px;"/><path d="M58.942,50c21.075,4.167 25.578,-25.536 50,-16.667" style="fill:none;stroke:#fff;stroke-width:8.33px;"/><path d="M105.178,50c21.076,4.167 25.579,-25.536 50,-16.667" style="fill:none;stroke:#fff;stroke-width:8.33px;"/><path d="M149.412,50.403l14.173,0" style="fill:none;stroke:#fff;stroke-width:8.33px;"/><path d="M17.298,65.722c-0,0 4.093,10.233 11.663,10.233c7.571,-0 8.891,-10.233 14.217,-10.233c5.326,0 7.922,10.233 15.427,10.233c7.505,-0 7.262,-10.233 14.018,-10.233c6.756,0 7.792,10.233 15.186,10.233c7.394,-0 6.052,-10.233 14.173,-10.233c8.12,0 7.326,10.233 14.964,10.233c7.637,-0 6.58,-10.233 14.415,-10.233c7.834,0 7.57,10.233 15.053,10.233c7.482,-0 8.23,-10.233 14.061,-10.233c2.994,0 3.063,1.739 3.063,1.739" style="fill:none;stroke:#fff;stroke-width:8.33px;"/></g></svg>